<?xml version="1.0" encoding="UTF-8"?>
<svg id="Layer_2" data-name="Layer 2" xmlns="http://www.w3.org/2000/svg" viewBox="0 0 258.47 276.05">
  <defs>
    <style>
      .cls-1 {
        fill: #ff6b6b;
      }

      .cls-2 {
        fill: #4d4d4d;
      }

      .cls-3 {
        fill: #00d2d3;
      }

      .cls-4 {
        fill: #2e86de;
      }

      .cls-5 {
        fill: #e07b39;
      }
    </style>
  </defs>
  <g id="Layer_10" data-name="Layer 10">
    <path class="cls-5" d="M48.64,134.7C23.51,160.15-2.76,201.3,12.96,235.08c2.85,5.46,6.77,11.87,13.64,11.75,2.04-.04,4.92-.08,6.95-.82,2.31-.82,4.42-2.05,6.61-3.38.91-.59,1.81-1.19,2.71-1.81.97,1.44,2.09,2.76,3.36,3.93-2.82,2.21-5.79,4.23-8.96,5.95-2.15,1.11-4.86,1.88-7.18,2.04-4.82.86-10.55.06-14.58-3.06-3.17-2.32-5.12-5.17-7.19-8.22C2.67,232.68-.09,222.1,0,211.72c.45-31.63,19.19-60.4,40.33-82.62.55-.57,1.1-1.14,1.66-1.7,1.65,2.9,3.93,5.41,6.65,7.3Z"/>
    <path class="cls-4" d="M197.98,67.02c-1.65,2.85-2.68,6.08-2.93,9.53-27.52-3.8-55.74,2.27-81.38,12.38-11.22,4.6-22.12,10.05-32.54,16.31-.87-1.56-1.93-3-3.15-4.29,7.39-5.25,15.21-9.99,23.15-14.23,9.39-4.87,19.38-9.21,29.43-12.52,1.73-.54,6.01-1.86,7.67-2.37,1.72-.49,6.01-1.53,7.8-2,3.01-.8,7.45-1.47,10.54-2.11,13.63-2.15,27.73-2.79,41.41-.7Z"/>
    <path class="cls-3" d="M235.22,195.99c-2.03-2.62-4.64-4.78-7.63-6.28,3.48-4.82,6.68-9.85,9.56-15.03,14.63-25.65,20.64-60.17-1.8-82.81,1.14-1.48,2.09-3.1,2.84-4.84,33.75,28.67,20.13,77.75-2.97,108.96Z"/>
    <path class="cls-1" d="M203.31,227.25c-2.79,2.58-5.67,5.06-8.61,7.47-25.27,20.4-55.43,35.38-87.48,41.28-7.67.82-13.78-7.47-10.64-14.5,5.49-10.69,19.51-38,24.81-48.33l4.14-8.05c1.48-3.2,3.02-5.6,7-6.58l3.16,1.63c1.52,3.81.47,6.46-1.27,9.52l-4.15,8.05c-5.18,10.03-19,36.84-24.63,47.75,0,.4.36.76.74.74.03.01.06,0,.09,0l.51-.1,1.05-.21c29.82-5.78,58.02-18.83,82.75-36.34,2.91-2.08,5.78-4.23,8.59-6.46,1.12,1.54,2.45,2.94,3.94,4.13Z"/>
    <path class="cls-5" d="M79.05,228.29c0,9.65-7.85,17.5-17.5,17.5-4.36,0-8.35-1.6-11.42-4.25-1.23-1.06-2.31-2.29-3.2-3.65-1.82-2.76-2.88-6.06-2.88-9.6,0-9.65,7.85-17.5,17.5-17.5s17.5,7.85,17.5,17.5Z"/>
    <path class="cls-4" d="M79.05,116.3c0,9.65-7.85,17.5-17.5,17.5-3.4,0-6.59-.98-9.28-2.67-2.84-1.78-5.14-4.36-6.57-7.42-1.06-2.25-1.65-4.76-1.65-7.41,0-9.65,7.85-17.5,17.5-17.5,4.81,0,9.18,1.95,12.35,5.11,1.17,1.16,2.17,2.49,2.98,3.94,1.38,2.51,2.17,5.39,2.17,8.45Z"/>
    <path class="cls-1" d="M234.98,209.8c0,9.65-7.85,17.5-17.5,17.5-3.94,0-7.58-1.31-10.51-3.51-1.42-1.07-2.68-2.36-3.72-3.81-2.06-2.87-3.27-6.38-3.27-10.18,0-9.65,7.85-17.5,17.5-17.5,2.51,0,4.9.53,7.06,1.49,3.09,1.37,5.72,3.61,7.56,6.41,1.82,2.76,2.88,6.05,2.88,9.6Z"/>
    <path class="cls-3" d="M234.98,78.23c0,1.96-.33,3.85-.93,5.62-.56,1.66-1.37,3.21-2.38,4.6-3.18,4.41-8.35,7.28-14.19,7.28-9.65,0-17.5-7.85-17.5-17.5,0-.27.01-.55.02-.82.16-3.51,1.37-6.76,3.31-9.44,3.19-4.39,8.35-7.24,14.17-7.24,9.65,0,17.5,7.85,17.5,17.5Z"/>
    <path class="cls-2" d="M139.32,151.24l-6.62,48.15c-.12.9-1.05,1.12-1.57.38l-28.02-39.72c-.12-.17-.21-.38-.24-.6L80.04,6.39c-1.05-7.04,6.83-8.96,9.14-2.23l50.08,146.42c.07.21.09.43.07.65Z"/>
  </g>
</svg>