<?xml version="1.0" encoding="UTF-8"?>
<svg id="Layer_2" data-name="Layer 2" xmlns="http://www.w3.org/2000/svg" viewBox="0 0 258.47 276.05">
  <defs>
    <style>
      .cls-1 {
        fill: #ff6b6b;
      }

      .cls-2 {
        fill: #00d2d3;
      }

      .cls-3 {
        fill: #2e86de;
      }

      .cls-4 {
        fill: #e07b39;
      }

      .cls-5 {
        fill: #1e1e24;
      }
    </style>
  </defs>
  <g id="Layer_10" data-name="Layer 10">
    <g>
      <path class="cls-4" d="M60.34,226.99l2.42,2.6c-4.11,3.98-8.22,8.13-12.63,11.95-1.23-1.06-2.31-2.29-3.2-3.65,4.6-3.45,9.03-7.2,13.41-10.9Z"/>
      <path class="cls-4" d="M48.64,134.7C23.51,160.15-2.76,201.3,12.96,235.08c2.85,5.46,6.77,11.87,13.64,11.75,2.04-.04,4.92-.08,6.95-.82,2.31-.82,4.42-2.05,6.61-3.38.91-.59,1.81-1.19,2.71-1.81.97,1.44,2.09,2.76,3.36,3.93-2.82,2.21-5.79,4.23-8.96,5.95-2.15,1.11-4.86,1.88-7.18,2.04-4.82.86-10.55.06-14.58-3.06-3.17-2.32-5.12-5.17-7.19-8.22C2.67,232.68-.09,222.1,0,211.72c.45-31.63,19.19-60.4,40.33-82.62.55-.57,1.1-1.14,1.66-1.7,1.65,2.9,3.93,5.41,6.65,7.3Z"/>
      <path class="cls-4" d="M64.88,119.95c-2.72,2.44-5.68,4.72-8.37,7.24-1.4,1.25-2.82,2.57-4.24,3.94-2.84-1.78-5.14-4.36-6.57-7.42,3.94-3.81,8.04-7.45,12.26-10.93.23-.17.4-.39.68-.48.58-.16,1.5.09,3.25,1.41l2.23,2.77c.92,2,1.01,2.95.76,3.47Z"/>
    </g>
    <g>
      <path class="cls-3" d="M73.9,103.91c1.17,1.16,2.17,2.49,2.98,3.94-4.35,2.73-8.61,5.61-12.76,8.63l-2.23-2.77c2.65-2.33,5.35-4.6,8.11-6.8,1.28-1.02,2.58-2.02,3.9-3Z"/>
      <path class="cls-3" d="M197.98,67.02c-1.65,2.85-2.68,6.08-2.93,9.53-27.52-3.8-55.74,2.27-81.38,12.38-11.22,4.6-22.12,10.05-32.54,16.31-.87-1.56-1.93-3-3.15-4.29,7.39-5.25,15.21-9.99,23.15-14.23,9.39-4.87,19.38-9.21,29.43-12.52,1.73-.54,6.01-1.86,7.67-2.37,1.72-.49,6.01-1.53,7.8-2,3.01-.8,7.45-1.47,10.54-2.11,13.63-2.15,27.73-2.79,41.41-.7Z"/>
      <path class="cls-3" d="M219.73,76.38l-1.43,3.25c-1.24,1.8-1.93,2.38-2.41,2.46-.31.02-.84-.29-1.16-.38-3.34-1.42-7.03-2.46-10.52-3.43l-1.22-.25-2.99-.62c.16-3.51,1.37-6.76,3.31-9.44,2.43.51,4.84,1.1,7.23,1.8,2.62.65,5.35,1.66,7.88,2.65l.65.25c.21.1.45.12.63.31.33.39.46,1.28.03,3.4Z"/>
    </g>
    <g>
      <path class="cls-2" d="M232.1,200.2c-2.51,3.3-5.15,6.5-7.89,9.6l-.41.47c-.15.14-.24.34-.45.42-.46.15-1.32-.07-3.16-1.2l-2.63-2.4c-1.31-1.73-1.64-2.55-1.56-3,.05-.22.23-.33.35-.48l.39-.44c2.72-3.02,5.32-6.15,7.8-9.38,3.09,1.37,5.72,3.61,7.56,6.41Z"/>
      <path class="cls-2" d="M231.67,88.45c-4.05-3.48-8.58-6.41-13.37-8.82l1.43-3.25c5.04,1.9,9.88,4.38,14.32,7.47-.56,1.66-1.37,3.21-2.38,4.6Z"/>
      <path class="cls-2" d="M235.22,195.99c-2.03-2.62-4.64-4.78-7.63-6.28,3.48-4.82,6.68-9.85,9.56-15.03,14.63-25.65,20.64-60.17-1.8-82.81,1.14-1.48,2.09-3.1,2.84-4.84,33.75,28.67,20.13,77.75-2.97,108.96Z"/>
    </g>
    <g>
      <path class="cls-1" d="M203.31,227.25c-2.79,2.58-5.67,5.06-8.61,7.47-25.27,20.4-55.43,35.38-87.48,41.28-7.67.82-13.78-7.47-10.64-14.5,5.49-10.69,19.51-38,24.81-48.33l4.14-8.05c1.48-3.2,3.02-5.6,7-6.58l3.16,1.63c1.52,3.81.47,6.46-1.27,9.52l-4.15,8.05c-5.18,10.03-19,36.84-24.63,47.75,0,.4.36.76.74.74.03.01.06,0,.09,0l.51-.1,1.05-.21c29.82-5.78,58.02-18.83,82.75-36.34,2.91-2.08,5.78-4.23,8.59-6.46,1.12,1.54,2.45,2.94,3.94,4.13Z"/>
      <path class="cls-1" d="M220.19,209.49c-4.12,5.02-8.55,9.79-13.22,14.3-1.42-1.07-2.68-2.36-3.72-3.81,4.94-4.07,9.72-8.38,14.31-12.89l2.63,2.4Z"/>
    </g>
    <path class="cls-4" d="M79.05,228.29c0,9.65-7.85,17.5-17.5,17.5-4.36,0-8.35-1.6-11.42-4.25-1.23-1.06-2.31-2.29-3.2-3.65-1.82-2.76-2.88-6.06-2.88-9.6,0-9.65,7.85-17.5,17.5-17.5s17.5,7.85,17.5,17.5Z"/>
    <path class="cls-3" d="M79.05,116.3c0,9.65-7.85,17.5-17.5,17.5-3.4,0-6.59-.98-9.28-2.67-2.84-1.78-5.14-4.36-6.57-7.42-1.06-2.25-1.65-4.76-1.65-7.41,0-9.65,7.85-17.5,17.5-17.5,4.81,0,9.18,1.95,12.35,5.11,1.17,1.16,2.17,2.49,2.98,3.94,1.38,2.51,2.17,5.39,2.17,8.45Z"/>
    <path class="cls-1" d="M234.98,209.8c0,9.65-7.85,17.5-17.5,17.5-3.94,0-7.58-1.31-10.51-3.51-1.42-1.07-2.68-2.36-3.72-3.81-2.06-2.87-3.27-6.38-3.27-10.18,0-9.65,7.85-17.5,17.5-17.5,2.51,0,4.9.53,7.06,1.49,3.09,1.37,5.72,3.61,7.56,6.41,1.82,2.76,2.88,6.05,2.88,9.6Z"/>
    <path class="cls-2" d="M234.98,78.23c0,1.96-.33,3.85-.93,5.62-.56,1.66-1.37,3.21-2.38,4.6-3.18,4.41-8.35,7.28-14.19,7.28-9.65,0-17.5-7.85-17.5-17.5,0-.27.01-.55.02-.82.16-3.51,1.37-6.76,3.31-9.44,3.19-4.39,8.35-7.24,14.17-7.24,9.65,0,17.5,7.85,17.5,17.5Z"/>
    <path class="cls-5" d="M139.32,151.24l-6.62,48.15c-.12.9-1.05,1.12-1.57.38l-28.02-39.72c-.12-.17-.21-.38-.24-.6L80.04,6.39c-1.05-7.04,6.83-8.96,9.14-2.23l50.08,146.42c.07.21.09.43.07.65Z"/>
  </g>
</svg>